{
	"asset":{
		"generator":"Khronos glTF Blender I/O v4.0.44",
		"version":"2.0"
	},
	"extensionsUsed":[
		"KHR_materials_specular",
		"KHR_materials_ior"
	],
	"scene":0,
	"scenes":[
		{
			"name":"Scene",
			"nodes":[
				0
			]
		}
	],
	"nodes":[
		{
			"mesh":0,
			"name":"QS1296-W01-1-1-updated",
			"scale":[
				72.26983642578125,
				72.26983642578125,
				72.26983642578125
			]
		}
	],
	"materials":[
		{
			"doubleSided":true,
			"extensions":{
				"KHR_materials_specular":{
					"specularColorFactor":[
						0.0,
						0.0,
						0.0
					]
				},
				"KHR_materials_ior":{
					"ior":1.4500000476837158
				}
			},
			"name":"QS1296-W01-1-1-updated",
			"pbrMetallicRoughness":{
				"baseColorTexture":{
					"index":0
				},
				"metallicFactor":0
			}
		}
	],
	"meshes":[
		{
			"name":"QS1296-W01-1-1-updated",
			"primitives":[
				{
					"attributes":{
						"POSITION":0,
						"NORMAL":1,
						"TEXCOORD_0":2
					},
					"indices":3,
					"material":0
				}
			]
		}
	],
	"textures":[
		{
			"sampler":0,
			"source":0
		}
	],
	"images":[
		{
			"mimeType":"image/jpeg",
			"name":"QS1296-W01-1-1-updated",
			"uri":"textures/QS1296-W01-1-1-updated.jpg"
		}
	],
	"accessors":[
		{
			"bufferView":0,
			"componentType":5126,
			"count":1025902,
			"max":[
				0.035717230290174484,
				0.027241958305239677,
				0.024911649525165558
			],
			"min":[
				-0.03995528444647789,
				-0.017626434564590454,
				-0.02254650928080082
			],
			"type":"VEC3"
		},
		{
			"bufferView":1,
			"componentType":5126,
			"count":1025902,
			"type":"VEC3"
		},
		{
			"bufferView":2,
			"componentType":5126,
			"count":1025902,
			"type":"VEC2"
		},
		{
			"bufferView":3,
			"componentType":5125,
			"count":1026264,
			"type":"SCALAR"
		}
	],
	"bufferViews":[
		{
			"buffer":0,
			"byteLength":12310824,
			"byteOffset":0,
			"target":34962
		},
		{
			"buffer":0,
			"byteLength":12310824,
			"byteOffset":12310824,
			"target":34962
		},
		{
			"buffer":0,
			"byteLength":8207216,
			"byteOffset":24621648,
			"target":34962
		},
		{
			"buffer":0,
			"byteLength":4105056,
			"byteOffset":32828864,
			"target":34963
		}
	],
	"samplers":[
		{
			"magFilter":9729,
			"minFilter":9987
		}
	],
	"buffers":[
		{
			"byteLength":36933920,
			"uri":"scene.bin"
		}
	]
}
