{
	"asset":{
		"generator":"Khronos glTF Blender I/O v4.0.44",
		"version":"2.0"
	},
	"extensionsUsed":[
		"KHR_materials_specular",
		"KHR_materials_ior"
	],
	"scene":0,
	"scenes":[
		{
			"name":"Scene",
			"nodes":[
				1
			]
		}
	],
	"nodes":[
		{
			"mesh":0,
			"name":"node_id30",
			"scale":[
				0.01720697060227394,
				0.01720697060227394,
				0.01720697060227394
			],
			"translation":[
				0,
				-0.2540978491306305,
				0.24829168617725372
			]
		},
		{
			"children":[
				0
			],
			"name":"root",
			"scale":[
				7.614931583404541,
				7.614931583404541,
				7.614931583404541
			],
			"translation":[
				-0.04496431350708008,
				1.6290926933288574,
				-1.9063835144042969
			]
		}
	],
	"materials":[
		{
			"alphaCutoff":0.5,
			"alphaMode":"MASK",
			"doubleSided":true,
			"extensions":{
				"KHR_materials_specular":{
					"specularTexture":{
						"index":0
					},
					"specularColorTexture":{
						"index":1
					}
				},
				"KHR_materials_ior":{
					"ior":1000
				}
			},
			"name":"49",
			"pbrMetallicRoughness":{
				"baseColorTexture":{
					"index":2
				},
				"metallicFactor":0,
				"metallicRoughnessTexture":{
					"index":3
				}
			}
		}
	],
	"meshes":[
		{
			"name":"mesh_id31",
			"primitives":[
				{
					"attributes":{
						"POSITION":0,
						"NORMAL":1,
						"TEXCOORD_0":2
					},
					"indices":3,
					"material":0
				}
			]
		}
	],
	"textures":[
		{
			"sampler":0,
			"source":0
		},
		{
			"sampler":0,
			"source":0
		},
		{
			"sampler":0,
			"source":1
		},
		{
			"sampler":0,
			"source":2
		}
	],
	"images":[
		{
			"mimeType":"image/png",
			"name":"Image_1",
			"uri":"text2/Image_1.png"
		},
		{
			"mimeType":"image/png",
			"name":"Image_0",
			"uri":"text2/Image_0.png"
		},
		{
			"mimeType":"image/png",
			"name":"Image_2",
			"uri":"text2/Image_2.png"
		}
	],
	"accessors":[
		{
			"bufferView":0,
			"componentType":5126,
			"count":20592,
			"max":[
				10.708480834960938,
				29.64483642578125,
				35.402618408203125
			],
			"min":[
				-10.708480834960938,
				-0.11054611206054688,
				-14.429656982421875
			],
			"type":"VEC3"
		},
		{
			"bufferView":1,
			"componentType":5126,
			"count":20592,
			"type":"VEC3"
		},
		{
			"bufferView":2,
			"componentType":5126,
			"count":20592,
			"type":"VEC2"
		},
		{
			"bufferView":3,
			"componentType":5123,
			"count":118182,
			"type":"SCALAR"
		}
	],
	"bufferViews":[
		{
			"buffer":0,
			"byteLength":247104,
			"byteOffset":0,
			"target":34962
		},
		{
			"buffer":0,
			"byteLength":247104,
			"byteOffset":247104,
			"target":34962
		},
		{
			"buffer":0,
			"byteLength":164736,
			"byteOffset":494208,
			"target":34962
		},
		{
			"buffer":0,
			"byteLength":236364,
			"byteOffset":658944,
			"target":34963
		}
	],
	"samplers":[
		{
			"magFilter":9729,
			"minFilter":9987
		}
	],
	"buffers":[
		{
			"byteLength":895308,
			"uri":"scene.bin"
		}
	]
}
