{
	"asset":{
		"generator":"Khronos glTF Blender I/O v4.0.44",
		"version":"2.0"
	},
	"scene":0,
	"scenes":[
		{
			"name":"Scene",
			"nodes":[
				4,
				5,
				6,
				7
			]
		}
	],
	"nodes":[
		{
			"name":"Armature.001_41",
			"translation":[
				0,
				0,
				36.91086959838867
			]
		},
		{
			"name":"Armature_20",
			"translation":[
				0,
				0,
				-29.32205581665039
			]
		},
		{
			"children":[
				0,
				1
			],
			"name":"GLTF_SceneRootNode",
			"rotation":[
				0.70710688829422,
				0,
				0,
				0.7071066498756409
			],
			"translation":[
				0,
				-2.4508726710337214e-06,
				0
			]
		},
		{
			"children":[
				2
			],
			"name":"root",
			"translation":[
				0,
				-2.4508726710337214e-06,
				0
			]
		},
		{
			"children":[
				3
			],
			"name":"Sketchfab_model",
			"rotation":[
				-0.70710688829422,
				0,
				0,
				0.7071066498756409
			],
			"scale":[
				0.46377795934677124,
				0.46377792954444885,
				0.46377792954444885
			],
			"translation":[
				0.8759675621986389,
				0.8320766687393188,
				-10.527315139770508
			]
		},
		{
			"name":"Mesh_0_19",
			"scale":[
				0.46377795934677124,
				0.46377795934677124,
				0.46377795934677124
			],
			"translation":[
				0.8759675621986389,
				0.8320766687393188,
				-10.527315139770508
			]
		},
		{
			"mesh":0,
			"name":"Object_31",
			"scale":[
				0.46377795934677124,
				0.46377795934677124,
				0.46377795934677124
			],
			"translation":[
				0.8759675621986389,
				0.8320766687393188,
				-10.527315139770508
			]
		},
		{
			"name":"Mesh_1.001_40",
			"scale":[
				0.46377795934677124,
				0.46377795934677124,
				0.46377795934677124
			],
			"translation":[
				0.8759675621986389,
				0.8320766687393188,
				-10.527315139770508
			]
		}
	],
	"materials":[
		{
			"doubleSided":true,
			"name":"Material_1",
			"normalTexture":{
				"index":0
			},
			"pbrMetallicRoughness":{
				"baseColorTexture":{
					"index":1
				},
				"metallicFactor":0,
				"metallicRoughnessTexture":{
					"index":2
				}
			}
		}
	],
	"meshes":[
		{
			"name":"Object_1",
			"primitives":[
				{
					"attributes":{
						"POSITION":0,
						"NORMAL":1,
						"TEXCOORD_0":2,
						"TEXCOORD_1":3,
						"TEXCOORD_2":4,
						"TEXCOORD_3":5,
						"TEXCOORD_4":6
					},
					"indices":7,
					"material":0
				}
			]
		}
	],
	"textures":[
		{
			"sampler":0,
			"source":0
		},
		{
			"sampler":0,
			"source":1
		},
		{
			"sampler":0,
			"source":2
		}
	],
	"images":[
		{
			"mimeType":"image/png",
			"name":"Material_0_normal",
			"uri":"textures/Material_0_normal.png"
		},
		{
			"mimeType":"image/png",
			"name":"Material_1_baseColor",
			"uri":"textures/Material_1_baseColor.png"
		},
		{
			"mimeType":"image/png",
			"name":"Material_1_metallicRoughness",
			"uri":"textures/Material_1_metallicRoughness.png"
		}
	],
	"accessors":[
		{
			"bufferView":0,
			"componentType":5126,
			"count":6546,
			"max":[
				36.81635284423828,
				49.675880432128906,
				46.567657470703125
			],
			"min":[
				-32.78852462768555,
				-0.7537856698036194,
				-8.053145408630371
			],
			"type":"VEC3"
		},
		{
			"bufferView":1,
			"componentType":5126,
			"count":6546,
			"type":"VEC3"
		},
		{
			"bufferView":2,
			"componentType":5126,
			"count":6546,
			"type":"VEC2"
		},
		{
			"bufferView":3,
			"componentType":5126,
			"count":6546,
			"type":"VEC2"
		},
		{
			"bufferView":4,
			"componentType":5126,
			"count":6546,
			"type":"VEC2"
		},
		{
			"bufferView":5,
			"componentType":5126,
			"count":6546,
			"type":"VEC2"
		},
		{
			"bufferView":6,
			"componentType":5126,
			"count":6546,
			"type":"VEC2"
		},
		{
			"bufferView":7,
			"componentType":5123,
			"count":6570,
			"type":"SCALAR"
		}
	],
	"bufferViews":[
		{
			"buffer":0,
			"byteLength":78552,
			"byteOffset":0,
			"target":34962
		},
		{
			"buffer":0,
			"byteLength":78552,
			"byteOffset":78552,
			"target":34962
		},
		{
			"buffer":0,
			"byteLength":52368,
			"byteOffset":157104,
			"target":34962
		},
		{
			"buffer":0,
			"byteLength":52368,
			"byteOffset":209472,
			"target":34962
		},
		{
			"buffer":0,
			"byteLength":52368,
			"byteOffset":261840,
			"target":34962
		},
		{
			"buffer":0,
			"byteLength":52368,
			"byteOffset":314208,
			"target":34962
		},
		{
			"buffer":0,
			"byteLength":52368,
			"byteOffset":366576,
			"target":34962
		},
		{
			"buffer":0,
			"byteLength":13140,
			"byteOffset":418944,
			"target":34963
		}
	],
	"samplers":[
		{
			"magFilter":9729,
			"minFilter":9987
		}
	],
	"buffers":[
		{
			"byteLength":432084,
			"uri":"scene.bin"
		}
	]
}
