{
	"asset":{
		"generator":"Khronos glTF Blender I/O v4.0.44",
		"version":"2.0"
	},
	"scene":0,
	"scenes":[
		{
			"name":"Scene",
			"nodes":[
				11
			]
		}
	],
	"nodes":[
		{
			"mesh":0,
			"name":"Object_10"
		},
		{
			"mesh":1,
			"name":"Object_11"
		},
		{
			"mesh":2,
			"name":"Object_2"
		},
		{
			"mesh":3,
			"name":"Object_3"
		},
		{
			"mesh":4,
			"name":"Object_4"
		},
		{
			"mesh":5,
			"name":"Object_5"
		},
		{
			"mesh":6,
			"name":"Object_6"
		},
		{
			"mesh":7,
			"name":"Object_7"
		},
		{
			"mesh":8,
			"name":"Object_8"
		},
		{
			"mesh":9,
			"name":"Object_9"
		},
		{
			"children":[
				0,
				1,
				2,
				3,
				4,
				5,
				6,
				7,
				8,
				9
			],
			"name":"NHMW-Zoo1-VS-75374-Cygnus-buccinator_07062022_VW-AH_lowres.obj."
		},
		{
			"children":[
				10
			],
			"name":"Sketchfab_model",
			"rotation":[
				-0.5344963073730469,
				-0.46294039487838745,
				-0.46294039487838745,
				0.5344963073730469
			],
			"scale":[
				0.0060055432841181755,
				0.0060055432841181755,
				0.006005542818456888
			],
			"translation":[
				0,
				0,
				0.1609761118888855
			]
		}
	],
	"materials":[
		{
			"doubleSided":true,
			"name":"material_0",
			"pbrMetallicRoughness":{
				"baseColorTexture":{
					"index":0
				},
				"metallicFactor":0
			}
		}
	],
	"meshes":[
		{
			"name":"Object_8",
			"primitives":[
				{
					"attributes":{
						"POSITION":0,
						"NORMAL":1,
						"TEXCOORD_0":2
					},
					"indices":3,
					"material":0
				}
			]
		},
		{
			"name":"Object_9",
			"primitives":[
				{
					"attributes":{
						"POSITION":4,
						"NORMAL":5,
						"TEXCOORD_0":6
					},
					"indices":7,
					"material":0
				}
			]
		},
		{
			"name":"Object_0",
			"primitives":[
				{
					"attributes":{
						"POSITION":8,
						"NORMAL":9,
						"TEXCOORD_0":10
					},
					"indices":11,
					"material":0
				}
			]
		},
		{
			"name":"Object_1",
			"primitives":[
				{
					"attributes":{
						"POSITION":12,
						"NORMAL":13,
						"TEXCOORD_0":14
					},
					"indices":15,
					"material":0
				}
			]
		},
		{
			"name":"Object_2",
			"primitives":[
				{
					"attributes":{
						"POSITION":16,
						"NORMAL":17,
						"TEXCOORD_0":18
					},
					"indices":19,
					"material":0
				}
			]
		},
		{
			"name":"Object_3",
			"primitives":[
				{
					"attributes":{
						"POSITION":20,
						"NORMAL":21,
						"TEXCOORD_0":22
					},
					"indices":23,
					"material":0
				}
			]
		},
		{
			"name":"Object_4",
			"primitives":[
				{
					"attributes":{
						"POSITION":24,
						"NORMAL":25,
						"TEXCOORD_0":26
					},
					"indices":27,
					"material":0
				}
			]
		},
		{
			"name":"Object_5",
			"primitives":[
				{
					"attributes":{
						"POSITION":28,
						"NORMAL":29,
						"TEXCOORD_0":30
					},
					"indices":31,
					"material":0
				}
			]
		},
		{
			"name":"Object_6",
			"primitives":[
				{
					"attributes":{
						"POSITION":32,
						"NORMAL":33,
						"TEXCOORD_0":34
					},
					"indices":35,
					"material":0
				}
			]
		},
		{
			"name":"Object_7",
			"primitives":[
				{
					"attributes":{
						"POSITION":36,
						"NORMAL":37,
						"TEXCOORD_0":38
					},
					"indices":39,
					"material":0
				}
			]
		}
	],
	"textures":[
		{
			"sampler":0,
			"source":0
		}
	],
	"images":[
		{
			"mimeType":"image/png",
			"name":"material_0_baseColor",
			"uri":"textures/material_0_baseColor.png"
		}
	],
	"accessors":[
		{
			"bufferView":0,
			"componentType":5126,
			"count":65534,
			"max":[
				184.62965393066406,
				465.39044189453125,
				825.0424194335938
			],
			"min":[
				-216.6188507080078,
				-142.61639404296875,
				180.90869140625
			],
			"type":"VEC3"
		},
		{
			"bufferView":1,
			"componentType":5126,
			"count":65534,
			"type":"VEC3"
		},
		{
			"bufferView":2,
			"componentType":5126,
			"count":65534,
			"type":"VEC2"
		},
		{
			"bufferView":3,
			"componentType":5123,
			"count":65562,
			"type":"SCALAR"
		},
		{
			"bufferView":4,
			"componentType":5126,
			"count":9977,
			"max":[
				126.56924438476562,
				359.7120056152344,
				375.656005859375
			],
			"min":[
				-123.1677474975586,
				143.2858428955078,
				181.34274291992188
			],
			"type":"VEC3"
		},
		{
			"bufferView":5,
			"componentType":5126,
			"count":9977,
			"type":"VEC3"
		},
		{
			"bufferView":6,
			"componentType":5126,
			"count":9977,
			"type":"VEC2"
		},
		{
			"bufferView":7,
			"componentType":5123,
			"count":9981,
			"type":"SCALAR"
		},
		{
			"bufferView":8,
			"componentType":5126,
			"count":65532,
			"max":[
				151.39703369140625,
				276.0946044921875,
				315.3428955078125
			],
			"min":[
				-135.8798370361328,
				-321.92071533203125,
				-0.7403560280799866
			],
			"type":"VEC3"
		},
		{
			"bufferView":9,
			"componentType":5126,
			"count":65532,
			"type":"VEC3"
		},
		{
			"bufferView":10,
			"componentType":5126,
			"count":65532,
			"type":"VEC2"
		},
		{
			"bufferView":11,
			"componentType":5123,
			"count":65544,
			"type":"SCALAR"
		},
		{
			"bufferView":12,
			"componentType":5126,
			"count":65532,
			"max":[
				141.089111328125,
				332.2272033691406,
				228.97195434570312
			],
			"min":[
				-155.52798461914062,
				-338.36932373046875,
				-1.203948974609375
			],
			"type":"VEC3"
		},
		{
			"bufferView":13,
			"componentType":5126,
			"count":65532,
			"type":"VEC3"
		},
		{
			"bufferView":14,
			"componentType":5126,
			"count":65532,
			"type":"VEC2"
		},
		{
			"bufferView":15,
			"componentType":5123,
			"count":65556,
			"type":"SCALAR"
		},
		{
			"bufferView":16,
			"componentType":5126,
			"count":65532,
			"max":[
				160.0835723876953,
				340.4717102050781,
				234.82012939453125
			],
			"min":[
				-151.6455078125,
				-349.499755859375,
				-1.203948974609375
			],
			"type":"VEC3"
		},
		{
			"bufferView":17,
			"componentType":5126,
			"count":65532,
			"type":"VEC3"
		},
		{
			"bufferView":18,
			"componentType":5126,
			"count":65532,
			"type":"VEC2"
		},
		{
			"bufferView":19,
			"componentType":5123,
			"count":65556,
			"type":"SCALAR"
		},
		{
			"bufferView":20,
			"componentType":5126,
			"count":65533,
			"max":[
				142.113037109375,
				319.27667236328125,
				552.3995361328125
			],
			"min":[
				-125.07209777832031,
				-349.98846435546875,
				138.7613525390625
			],
			"type":"VEC3"
		},
		{
			"bufferView":21,
			"componentType":5126,
			"count":65533,
			"type":"VEC3"
		},
		{
			"bufferView":22,
			"componentType":5126,
			"count":65533,
			"type":"VEC2"
		},
		{
			"bufferView":23,
			"componentType":5123,
			"count":65571,
			"type":"SCALAR"
		},
		{
			"bufferView":24,
			"componentType":5126,
			"count":65534,
			"max":[
				87.09715270996094,
				453.1587219238281,
				861.0810546875
			],
			"min":[
				-216.12808227539062,
				-286.78961181640625,
				161.305419921875
			],
			"type":"VEC3"
		},
		{
			"bufferView":25,
			"componentType":5126,
			"count":65534,
			"type":"VEC3"
		},
		{
			"bufferView":26,
			"componentType":5126,
			"count":65534,
			"type":"VEC2"
		},
		{
			"bufferView":27,
			"componentType":5123,
			"count":65556,
			"type":"SCALAR"
		},
		{
			"bufferView":28,
			"componentType":5126,
			"count":65534,
			"max":[
				14.208754539489746,
				454.30828857421875,
				861.4803466796875
			],
			"min":[
				-214.5102996826172,
				-295.2491149902344,
				160.63778686523438
			],
			"type":"VEC3"
		},
		{
			"bufferView":29,
			"componentType":5126,
			"count":65534,
			"type":"VEC3"
		},
		{
			"bufferView":30,
			"componentType":5126,
			"count":65534,
			"type":"VEC2"
		},
		{
			"bufferView":31,
			"componentType":5123,
			"count":65568,
			"type":"SCALAR"
		},
		{
			"bufferView":32,
			"componentType":5126,
			"count":65532,
			"max":[
				121.96585845947266,
				452.6513366699219,
				864.1995849609375
			],
			"min":[
				-215.5322265625,
				-348.1280212402344,
				143.8289794921875
			],
			"type":"VEC3"
		},
		{
			"bufferView":33,
			"componentType":5126,
			"count":65532,
			"type":"VEC3"
		},
		{
			"bufferView":34,
			"componentType":5126,
			"count":65532,
			"type":"VEC2"
		},
		{
			"bufferView":35,
			"componentType":5123,
			"count":65550,
			"type":"SCALAR"
		},
		{
			"bufferView":36,
			"componentType":5126,
			"count":65532,
			"max":[
				154.1071319580078,
				464.9956970214844,
				863.872802734375
			],
			"min":[
				-216.3406982421875,
				195.8191680908203,
				290.13775634765625
			],
			"type":"VEC3"
		},
		{
			"bufferView":37,
			"componentType":5126,
			"count":65532,
			"type":"VEC3"
		},
		{
			"bufferView":38,
			"componentType":5126,
			"count":65532,
			"type":"VEC2"
		},
		{
			"bufferView":39,
			"componentType":5123,
			"count":65556,
			"type":"SCALAR"
		}
	],
	"bufferViews":[
		{
			"buffer":0,
			"byteLength":786408,
			"byteOffset":0,
			"target":34962
		},
		{
			"buffer":0,
			"byteLength":786408,
			"byteOffset":786408,
			"target":34962
		},
		{
			"buffer":0,
			"byteLength":524272,
			"byteOffset":1572816,
			"target":34962
		},
		{
			"buffer":0,
			"byteLength":131124,
			"byteOffset":2097088,
			"target":34963
		},
		{
			"buffer":0,
			"byteLength":119724,
			"byteOffset":2228212,
			"target":34962
		},
		{
			"buffer":0,
			"byteLength":119724,
			"byteOffset":2347936,
			"target":34962
		},
		{
			"buffer":0,
			"byteLength":79816,
			"byteOffset":2467660,
			"target":34962
		},
		{
			"buffer":0,
			"byteLength":19962,
			"byteOffset":2547476,
			"target":34963
		},
		{
			"buffer":0,
			"byteLength":786384,
			"byteOffset":2567440,
			"target":34962
		},
		{
			"buffer":0,
			"byteLength":786384,
			"byteOffset":3353824,
			"target":34962
		},
		{
			"buffer":0,
			"byteLength":524256,
			"byteOffset":4140208,
			"target":34962
		},
		{
			"buffer":0,
			"byteLength":131088,
			"byteOffset":4664464,
			"target":34963
		},
		{
			"buffer":0,
			"byteLength":786384,
			"byteOffset":4795552,
			"target":34962
		},
		{
			"buffer":0,
			"byteLength":786384,
			"byteOffset":5581936,
			"target":34962
		},
		{
			"buffer":0,
			"byteLength":524256,
			"byteOffset":6368320,
			"target":34962
		},
		{
			"buffer":0,
			"byteLength":131112,
			"byteOffset":6892576,
			"target":34963
		},
		{
			"buffer":0,
			"byteLength":786384,
			"byteOffset":7023688,
			"target":34962
		},
		{
			"buffer":0,
			"byteLength":786384,
			"byteOffset":7810072,
			"target":34962
		},
		{
			"buffer":0,
			"byteLength":524256,
			"byteOffset":8596456,
			"target":34962
		},
		{
			"buffer":0,
			"byteLength":131112,
			"byteOffset":9120712,
			"target":34963
		},
		{
			"buffer":0,
			"byteLength":786396,
			"byteOffset":9251824,
			"target":34962
		},
		{
			"buffer":0,
			"byteLength":786396,
			"byteOffset":10038220,
			"target":34962
		},
		{
			"buffer":0,
			"byteLength":524264,
			"byteOffset":10824616,
			"target":34962
		},
		{
			"buffer":0,
			"byteLength":131142,
			"byteOffset":11348880,
			"target":34963
		},
		{
			"buffer":0,
			"byteLength":786408,
			"byteOffset":11480024,
			"target":34962
		},
		{
			"buffer":0,
			"byteLength":786408,
			"byteOffset":12266432,
			"target":34962
		},
		{
			"buffer":0,
			"byteLength":524272,
			"byteOffset":13052840,
			"target":34962
		},
		{
			"buffer":0,
			"byteLength":131112,
			"byteOffset":13577112,
			"target":34963
		},
		{
			"buffer":0,
			"byteLength":786408,
			"byteOffset":13708224,
			"target":34962
		},
		{
			"buffer":0,
			"byteLength":786408,
			"byteOffset":14494632,
			"target":34962
		},
		{
			"buffer":0,
			"byteLength":524272,
			"byteOffset":15281040,
			"target":34962
		},
		{
			"buffer":0,
			"byteLength":131136,
			"byteOffset":15805312,
			"target":34963
		},
		{
			"buffer":0,
			"byteLength":786384,
			"byteOffset":15936448,
			"target":34962
		},
		{
			"buffer":0,
			"byteLength":786384,
			"byteOffset":16722832,
			"target":34962
		},
		{
			"buffer":0,
			"byteLength":524256,
			"byteOffset":17509216,
			"target":34962
		},
		{
			"buffer":0,
			"byteLength":131100,
			"byteOffset":18033472,
			"target":34963
		},
		{
			"buffer":0,
			"byteLength":786384,
			"byteOffset":18164572,
			"target":34962
		},
		{
			"buffer":0,
			"byteLength":786384,
			"byteOffset":18950956,
			"target":34962
		},
		{
			"buffer":0,
			"byteLength":524256,
			"byteOffset":19737340,
			"target":34962
		},
		{
			"buffer":0,
			"byteLength":131112,
			"byteOffset":20261596,
			"target":34963
		}
	],
	"samplers":[
		{
			"magFilter":9729,
			"minFilter":9987
		}
	],
	"buffers":[
		{
			"byteLength":20392708,
			"uri":"scene.bin"
		}
	]
}
